<svg width="190" height="35" viewBox="0 0 190 35" fill="none" xmlns="http://www.w3.org/2000/svg">
<g clip-path="url(#clip0_161_2686)">
<path d="M29.2109 0.650146H29.005H19.5892H19.5226H9.89486L5.05678 9.07202L0.212646 17.5H9.90697L14.7451 9.07202H24.1669H24.3728H33.8552L38.6993 0.650146H29.2109Z" fill="white"/>
<path d="M19.5225 17.5H9.9372L5.09912 25.928H4.99013L0.145996 34.3498H9.84032L14.6784 25.928H14.7874H24.3727L29.2108 17.5H19.6315H19.5225Z" fill="white"/>
<path d="M61.612 8.39757V11.1988H57.8457V14.4679H61.612V34.5382H65.3299V14.4679H69.1749L71.7484 11.1988H65.3299V8.39757C65.3299 5.22569 66.8195 3.26302 69.514 3.26302C71.0944 3.26302 72.4447 3.40278 73.6558 3.87066L74.5882 0.978299C73.0502 0.279514 71.3306 0 69.5201 0C64.7304 0 61.612 3.31163 61.612 8.39757Z" fill="white"/>
<path d="M87.7462 10.731H87.0922C84.0707 10.731 81.5578 12.086 79.9774 13.9514L79.6988 13.8117V11.1988L75.981 14.0001V34.5808H79.6988V17.5001C81.3701 15.3551 83.7921 14.0001 86.6259 14.0001H87.7401V10.731H87.7462Z" fill="white"/>
<path d="M99.8383 10.731C93.0928 10.731 87.7461 16.0964 87.7461 22.8655C87.7461 29.6346 93.0928 35.0001 99.8383 35.0001C106.584 35.0001 111.979 29.6346 111.979 22.8655C111.979 16.0964 106.584 10.731 99.8383 10.731ZM99.8383 31.737C95.1879 31.737 91.47 27.7692 91.47 22.8716C91.47 17.974 95.1879 14.0061 99.8383 14.0061C104.489 14.0061 108.255 18.0226 108.255 22.8716C108.255 27.7205 104.44 31.737 99.8383 31.737Z" fill="white"/>
<path d="M127.268 10.731C123.454 10.731 120.48 12.2257 118.761 14.3221L118.482 14.231V11.1988L114.764 14.4679V34.5382H118.482V18.3933C120.111 15.4523 123.133 14.0061 126.342 14.0061C129.551 14.0061 131.967 15.9688 131.967 20.5382V34.5382H135.685V20.5382C135.685 14.0487 131.87 10.737 127.268 10.737V10.731Z" fill="white"/>
<path d="M152.203 14.4679V11.1988H145.319V3.73096H141.601V11.1988H137.828V14.4679H141.601H145.319H152.203Z" fill="white"/>
<path d="M149.503 31.4999C147.038 31.4999 145.319 30.1023 145.319 26.8332V14.4678L141.601 20.8601V26.8332C141.601 31.9192 144.998 34.769 149.509 34.769C151.138 34.769 152.718 34.4895 154.111 33.7907L153.178 30.8983C152.107 31.3662 150.902 31.506 149.503 31.506V31.4999Z" fill="white"/>
<path d="M162.055 11.1987H158.337V34.5321H162.055V11.1987Z" fill="white"/>
<path d="M160.148 1.53735C158.937 1.53735 157.913 2.56426 157.913 3.82208C157.913 5.07989 158.937 6.06426 160.148 6.06426C161.359 6.06426 162.424 5.03735 162.424 3.82208C162.424 2.6068 161.401 1.53735 160.148 1.53735Z" fill="white"/>
<path d="M179.985 22.5433L188.68 11.1987H184.399L177.841 19.7847L171.332 11.1987H167.057L175.752 22.5433L166.591 34.5321H170.775L177.841 25.296L184.962 34.5321H189.146L179.985 22.5433Z" fill="white"/>
</g>
<defs>
<clipPath id="clip0_161_2686">
<rect width="189" height="35" fill="white" transform="translate(0.145996)"/>
</clipPath>
</defs>
</svg>
