<svg width="56" height="55" viewBox="0 0 56 55" fill="none" xmlns="http://www.w3.org/2000/svg">
<g clip-path="url(#clip0_161_2830)">
<path d="M5.77476 0.179236C10.1732 -0.34628 15.4436 0.483298 19.9335 0.158145C22.908 0.557116 25.1916 2.8824 25.5397 5.86677C25.2443 10.317 25.9422 15.2892 25.5397 19.6761C25.2654 22.6552 22.7691 25.0824 19.8157 25.3988C15.3645 25.1035 10.3912 25.8013 6.00329 25.3988C3.06572 25.1281 0.550057 22.6165 0.279329 19.6761C-0.130279 15.2294 0.550057 10.1482 0.314488 5.63828C0.692453 2.88943 2.98309 0.513177 5.77476 0.179236ZM6.16503 4.38513C5.26495 4.57846 4.57582 5.32719 4.48792 6.26047C4.76568 10.4207 4.11875 15.0554 4.48265 19.1594C4.58812 20.351 5.32296 21.0927 6.5219 21.1982C10.5899 21.5567 15.1729 20.9152 19.2971 21.1982C20.4749 21.1278 21.2344 20.3229 21.3363 19.1594C21.695 15.0923 21.0533 10.5103 21.3363 6.38701C21.3047 5.32192 20.482 4.45543 19.4237 4.35349L6.16503 4.38513Z" fill="#7300FF"/>
<path d="M35.2528 0.179297C39.6512 -0.346219 44.9216 0.483359 49.4115 0.158206C52.386 0.557177 54.6696 2.88246 55.0177 5.86683C54.7224 10.317 55.4203 15.2892 55.0177 19.6761C54.7435 22.6552 52.2471 25.0825 49.2937 25.3988C44.8425 25.1036 39.8692 25.8013 35.4813 25.3988C32.5437 25.1282 30.0281 22.6166 29.7574 19.6761C29.3477 15.2295 30.0281 10.1483 29.7925 5.63835C30.1705 2.88773 32.4611 0.513238 35.2528 0.179297ZM35.6413 4.38519C34.7412 4.57852 34.0521 5.32725 33.9642 6.26053C34.2419 10.4207 33.595 15.0555 33.9589 19.1594C34.0644 20.3511 34.7992 21.0928 35.9982 21.1982C40.0661 21.5568 44.6492 20.9152 48.7734 21.1982C49.9512 21.1279 50.7107 20.3229 50.8126 19.1594C51.1712 15.0924 50.5296 10.5104 50.8126 6.38707C50.781 5.32198 49.9582 4.45549 48.8999 4.35355L35.6413 4.38519Z" fill="#7300FF"/>
<path d="M5.775 29.6487C10.1735 29.1231 15.4439 29.9527 19.9337 29.6276C22.9082 30.0265 25.1918 32.3518 25.5399 35.3362C25.2446 39.7864 25.9425 44.7586 25.5399 49.1455C25.2657 52.1246 22.7693 54.5518 19.8159 54.8682C15.3648 54.5729 10.3914 55.2707 6.00354 54.8682C3.06596 54.5975 0.550301 52.0859 0.279573 49.1455C-0.130035 44.6988 0.550301 39.6177 0.314732 35.1077C0.694455 32.3501 2.99037 29.9808 5.775 29.6487ZM6.16527 33.8545C5.26519 34.0479 4.57606 34.7966 4.48816 35.7299C4.76592 39.8901 4.11899 44.5248 4.48289 48.6288C4.58837 49.8204 5.3232 50.5621 6.52214 50.6676C10.5901 51.0261 15.1731 50.3846 19.2973 50.6676C20.4752 50.5973 21.2346 49.7923 21.3366 48.6288C21.6952 44.5617 21.0536 39.9797 21.3366 35.8564C21.305 34.7913 20.4822 33.9249 19.4239 33.8229L6.16527 33.8545Z" fill="#7300FF"/>
<path d="M55.0177 42.2417C55.0177 49.2158 49.3623 54.8699 42.3867 54.8699C35.411 54.8699 29.7556 49.2158 29.7556 42.2417C29.7556 35.2676 35.411 29.6135 42.3867 29.6135C49.3623 29.6135 55.0177 35.2676 55.0177 42.2417ZM50.8144 42.2417C50.8144 37.5894 47.0418 33.8176 42.3884 33.8176C37.7351 33.8176 33.9625 37.5894 33.9625 42.2417C33.9625 46.894 37.7351 50.6658 42.3884 50.6658C47.0418 50.6658 50.8144 46.894 50.8144 42.2417Z" fill="#7300FF"/>
</g>
<defs>
<clipPath id="clip0_161_2830">
<rect width="55" height="55" fill="white" transform="translate(0.145996)"/>
</clipPath>
</defs>
</svg>
