<svg width="43" height="41" viewBox="0 0 43 41" fill="none" xmlns="http://www.w3.org/2000/svg">
<path d="M14.5565 18.7208H10.0874V13.6513C10.0874 12.593 9.33506 11.7395 8.40213 11.7395C7.4692 11.7395 6.71684 12.593 6.71684 13.6513V18.7208H2.24779C1.31486 18.7208 0.5625 19.5743 0.5625 20.6326C0.5625 21.6909 1.31486 22.5444 2.24779 22.5444H6.71684V27.614C6.71684 28.6723 7.4692 29.5257 8.40213 29.5257C9.33506 29.5257 10.0874 28.6723 10.0874 27.614V22.5444H14.5565C15.4894 22.5444 16.2418 21.6909 16.2418 20.6326C16.2418 19.5743 15.4894 18.7208 14.5565 18.7208Z" fill="#732FDE"/>
<path d="M19.4471 40.4842H28.626V32.7176H33.3057V40.4842H39.3697L39.3998 1.78804L42.5597 0.712673C34.7352 3.37549 27.0159 6.00416 19.3418 8.61577C19.3418 23.3295 19.4321 24.3537 19.4321 40.4842H19.4471ZM37.88 27.2384H33.3508V22.1347H37.88V27.2384ZM33.3659 11.4834H37.9101V16.5871H33.3659V11.4834ZM23.9312 22.1005H28.5056V27.2555H24.0516C23.7958 25.5315 23.9914 23.8587 23.9162 22.1005H23.9312Z" fill="#A37BFF"/>
<path d="M39.3848 40.5012H42.5748V0.729721L39.4149 1.80509L39.3848 40.5012Z" fill="#A37BFF"/>
</svg>
