<svg width="30" height="28" viewBox="0 0 30 28" fill="none" xmlns="http://www.w3.org/2000/svg">
<path d="M26.7388 15.6375C26.7388 15.4884 26.7388 15.3278 26.7388 15.1787V6.24397C26.7388 5.11996 25.8241 4.21387 24.6895 4.21387H23.2075V5.56727C23.2075 6.71422 22.2697 7.64325 21.1119 7.64325H19.41C18.2522 7.64325 17.3144 6.71422 17.3144 5.56727V4.21387H9.93934V5.56727C9.93934 6.71422 9.00153 7.64325 7.84375 7.64325H6.14181C4.98403 7.64325 4.04623 6.71422 4.04623 5.56727V4.21387H2.55269C1.41807 4.21387 0.503418 5.11996 0.503418 6.24397V22.4389C0.503418 23.5629 1.41807 24.469 2.55269 24.469H14.4547C15.7977 24.469 17.0018 24.4461 18.067 24.4117C18.067 24.4117 18.0322 24.3543 18.0091 24.3199C14.4084 18.3787 21.4824 12.3113 26.7503 15.6375H26.7388ZM20.3246 10.4762C21.1698 10.4762 21.8529 11.1529 21.8529 11.9902C21.8529 12.8275 21.1698 13.5042 20.3246 13.5042C19.4795 13.5042 18.7964 12.8275 18.7964 11.9902C18.7964 11.1529 19.4795 10.4762 20.3246 10.4762ZM7.02173 19.7665C6.17655 19.7665 5.49346 19.0898 5.49346 18.2525C5.49346 17.4153 6.17655 16.7386 7.02173 16.7386C7.86691 16.7386 8.55 17.4153 8.55 18.2525C8.55 19.0898 7.86691 19.7665 7.02173 19.7665ZM7.02173 13.4927C6.17655 13.4927 5.49346 12.816 5.49346 11.9787C5.49346 11.1414 6.17655 10.4647 7.02173 10.4647C7.86691 10.4647 8.55 11.1414 8.55 11.9787C8.55 12.816 7.86691 13.4927 7.02173 13.4927ZM13.6211 19.7665C12.7759 19.7665 12.0928 19.0898 12.0928 18.2525C12.0928 17.4153 12.7759 16.7386 13.6211 16.7386C14.4663 16.7386 15.1494 17.4153 15.1494 18.2525C15.1494 19.0898 14.4663 19.7665 13.6211 19.7665ZM13.6211 13.4927C12.7759 13.4927 12.0928 12.816 12.0928 11.9787C12.0928 11.1414 12.7759 10.4647 13.6211 10.4647C14.4663 10.4647 15.1494 11.1414 15.1494 11.9787C15.1494 12.816 14.4663 13.4927 13.6211 13.4927Z" fill="#A37BFF"/>
<path d="M19.2249 0.199707H21.4362C21.8067 0.199707 22.0962 0.497914 22.0962 0.853468V5.62478C22.0962 5.9918 21.7952 6.27854 21.4362 6.27854H19.2249C18.8544 6.27854 18.5649 5.98033 18.5649 5.62478V0.853468C18.5649 0.486444 18.866 0.199707 19.2249 0.199707Z" fill="#732FDE"/>
<path d="M5.91042 0.199707H8.12179C8.49228 0.199707 8.78172 0.497914 8.78172 0.853468V5.62478C8.78172 5.9918 8.4807 6.27854 8.12179 6.27854H5.91042C5.53993 6.27854 5.25049 5.98033 5.25049 5.62478V0.853468C5.25049 0.486444 5.55151 0.199707 5.91042 0.199707Z" fill="#732FDE"/>
<path d="M28.0125 16.6581C27.6073 16.2567 27.1905 15.9126 26.7506 15.6373C21.4711 12.2997 14.4086 18.3671 18.0093 24.3197C18.0325 24.3542 18.044 24.3771 18.0672 24.4115C18.5072 25.0882 19.0745 25.6846 19.7344 26.1434C23.8098 29.1713 30.0618 25.8911 29.7608 20.8215C29.7261 19.2846 29.0893 17.7707 28.0125 16.6581ZM21.2743 21.223C21.2743 21.223 21.309 21.223 21.3206 21.2345C21.7489 21.395 22.1658 21.8423 22.5478 22.0603C23.4162 20.856 24.2729 19.6631 25.1413 18.4588C25.2339 18.3327 25.3497 18.2409 25.4886 18.195C25.6391 18.1377 25.8012 18.1377 25.9517 18.1836C26.0212 18.2065 26.0906 18.2409 26.1601 18.2868C27.04 18.9864 25.8475 19.881 25.477 20.5348C24.7592 21.5327 24.0414 22.519 23.3235 23.5169C23.2078 23.6889 23.0457 23.7921 22.872 23.838C22.7446 23.8724 22.6057 23.861 22.4668 23.8151C22.3857 23.7921 22.3163 23.7463 22.2468 23.7004C21.61 23.0466 19.8386 22.6108 20.4638 21.4868C20.5796 21.3491 20.6954 21.2689 20.8111 21.223C20.9617 21.1656 21.1122 21.1771 21.2627 21.223H21.2743Z" fill="#732FDE"/>
</svg>
