<svg width="39" height="32" viewBox="0 0 39 32" fill="none" xmlns="http://www.w3.org/2000/svg">
<path d="M38.0656 10.5739C38.4084 10.9177 38.2735 11.3772 38.2749 11.7874C38.2845 16.5106 38.2845 21.2353 38.279 25.9584C38.2749 29.1827 36.466 31.1889 33.5614 31.1904C28.753 31.1935 26.6316 31.1951 21.8218 31.1904C18.9296 31.1873 17.129 29.1719 17.1276 25.9322C17.1235 19.2954 17.1249 12.6587 17.1276 6.02342C17.129 2.76979 18.9186 0.742062 21.797 0.737436C25.1779 0.731268 25.869 0.731267 29.2499 0.742061C29.6161 0.742061 30.0263 0.590946 30.3333 0.974904C30.3333 3.35421 30.3237 5.73352 30.3347 8.11283C30.3416 9.72731 31.0808 10.5492 32.5276 10.5615C34.3736 10.5769 36.2183 10.5708 38.0643 10.5739H38.0656Z" fill="#A37BFF"/>
<path d="M38.0653 10.574C36.2193 10.571 34.3747 10.5771 32.5286 10.5617C31.0818 10.5494 30.3426 9.72903 30.3357 8.11301C30.3247 5.7337 30.333 3.35439 30.3343 0.975082C31.7701 2.21177 32.7861 3.89872 34.0498 5.32353C35.3383 6.77609 36.5139 8.3551 37.7418 9.87552C37.9056 10.0791 38.0777 10.2718 38.0667 10.574H38.0653Z" fill="#732FDE"/>
<path d="M4.12868 19.9593C4.89653 20.7474 5.73954 21.169 6.73348 21.1959C8.71954 21.2505 10.2793 19.9027 10.8072 17.7191C10.8469 17.5555 11.1001 17.3325 11.239 17.3446C11.9743 17.4113 12.7061 17.5353 13.4367 17.6585C13.7115 17.705 13.7517 17.9279 13.7073 18.2081C13.0308 22.4427 9.15247 25.2796 5.41364 24.3036C4.13169 23.9689 3.00788 23.3391 2.07347 22.312C1.79928 22.0109 1.61889 22.0338 1.3417 22.2824C0.817973 22.7518 0.736197 22.7067 0.653219 21.9847C0.476439 20.4416 0.300862 18.8985 0.132501 17.3547C0.0681624 16.7674 0.19744 16.665 0.694708 16.8974C2.00252 17.509 3.30912 18.1226 4.61392 18.7416C5.024 18.9362 5.04265 19.1127 4.70352 19.4319C4.52974 19.5956 4.35176 19.7546 4.12808 19.9586L4.12868 19.9593Z" fill="#A37BFF"/>
<path d="M9.69261 12.8804C8.96083 12.0789 8.12263 11.6801 7.15035 11.6323C5.24425 11.538 3.61175 12.8447 3.06217 14.8922C2.88058 15.5698 2.85232 15.5793 2.21134 15.4621C1.6798 15.3644 1.14465 15.2849 0.609498 15.2169C0.239704 15.1697 0.0623232 15.0418 0.141694 14.5535C0.655197 11.4033 3.11568 8.70309 6.21895 8.37306C8.32888 8.14877 10.1803 8.86676 11.7292 10.4859C12.0214 10.7917 12.1976 10.8059 12.4952 10.5365C13.0051 10.0744 13.1001 10.1276 13.1837 10.8564C13.3611 12.3995 13.5349 13.9426 13.7044 15.487C13.7676 16.0602 13.6551 16.1666 13.1765 15.9457C11.8374 15.3294 10.5025 14.6996 9.17069 14.0638C8.80871 13.8907 8.79247 13.7169 9.08711 13.4313C9.2711 13.2529 9.46472 13.0878 9.69261 12.8811V12.8804Z" fill="#A37BFF"/>
</svg>
