<svg width="35" height="27" viewBox="0 0 35 27" fill="none" xmlns="http://www.w3.org/2000/svg">
<path d="M33.4321 4.88859C33.526 5.0268 33.6199 5.17565 33.7033 5.31386C33.6929 5.2926 33.6825 5.27133 33.672 5.25007C33.6303 5.18628 33.599 5.12249 33.5573 5.0587C33.5155 4.99491 33.4738 4.93111 33.4425 4.87796C33.213 4.53774 32.9626 4.21878 32.6705 3.91046C29.6345 0.614594 24.5641 0.455116 21.3299 3.54898C20.5892 4.25068 20.0154 5.06933 19.5981 5.94114C19.3477 6.47273 19.1599 7.02558 19.0243 7.58907C19.0243 7.61033 19.0138 7.6316 19.0138 7.65286C18.68 9.13068 18.753 10.6936 19.2329 12.1395L9.46774 21.4849L9.38428 24.079C9.95809 24.3555 11.4604 24.7701 12.3577 23.9089C13.2653 23.0477 21.8203 14.8612 21.8203 14.8612C30.6256 20.1984 36.6976 10.0238 33.4321 4.87796V4.88859ZM30.3022 9.4709C29.3528 10.3746 27.8609 10.3321 26.9637 9.36459C26.0769 8.39709 26.1186 6.87674 27.068 5.9624C28.0174 5.0587 29.5093 5.10122 30.4065 6.06872C31.3038 7.03622 31.2516 8.55657 30.3022 9.4709Z" fill="#A37BFF"/>
<path d="M33.6047 5.05324C33.5116 4.89322 33.4081 4.72252 33.3046 4.5625C36.5443 9.72595 30.5203 19.9355 21.7843 14.58C21.7843 14.58 13.2968 22.7946 12.3963 23.6587C11.4958 24.5229 10.0157 24.1068 9.44638 23.8294C9.41533 24.8643 9.38428 25.387 9.38428 25.9844C9.38428 25.9844 9.38428 25.9844 9.38428 25.9951C10.1502 26.0484 14.1352 26.2725 14.1352 26.2725L14.0524 23.3707L17.0334 23.4667V20.6503C17.0437 20.6503 18.1616 20.7036 19.766 20.8103C19.766 20.8103 19.7867 20.789 19.797 20.789C21.0391 19.5835 22.9747 17.7058 23.8648 16.8524C30.0441 19.7328 37.7968 12.265 33.5944 5.0319L33.6047 5.05324Z" fill="#732FDE"/>
<path d="M8.13247 10.6492V7.25478H11.8693C12.6508 7.25478 13.2858 6.67794 13.2858 5.968C13.2858 5.25805 12.6508 4.68122 11.8693 4.68122H8.13247V1.28678C8.13247 0.576832 7.49746 0 6.71591 0C5.93436 0 5.29935 0.576832 5.29935 1.28678V4.68122H1.56256C0.781006 4.68122 0.145996 5.25805 0.145996 5.968C0.145996 6.67794 0.781006 7.25478 1.56256 7.25478H5.29935V10.6492C5.29935 11.3592 5.93436 11.936 6.71591 11.936C7.49746 11.936 8.13247 11.3592 8.13247 10.6492Z" fill="#732FDE"/>
</svg>
