<svg width="53" height="46" viewBox="0 0 53 46" fill="none" xmlns="http://www.w3.org/2000/svg">
<path d="M13.9043 41.1678C15.4679 39.6978 30.2666 25.7981 30.2666 25.7981C45.5119 34.8599 56.0106 17.5736 50.3517 8.84676C50.5379 9.12587 50.7054 9.40499 50.8729 9.6841C50.8357 9.60967 50.7985 9.55384 50.7613 9.47941C50.7054 9.36777 50.631 9.27473 50.5565 9.16309C50.482 9.05144 50.4262 8.95841 50.3517 8.84676C49.9608 8.26993 49.5141 7.71171 49.0301 7.1907C43.7808 1.60848 34.9947 1.32937 29.4103 6.57666C28.1259 7.76753 27.1393 9.16309 26.4133 10.6517C25.9852 11.5448 25.6501 12.4938 25.4081 13.4614C25.4081 13.4986 25.3895 13.5358 25.3895 13.573C24.8125 16.085 24.9428 18.7273 25.7804 21.2021L8.89696 37.0556L8.74805 41.4655C9.75324 41.9307 12.3407 42.6378 13.9043 41.1678ZM39.3505 10.7075C40.9886 9.16309 43.576 9.25613 45.121 10.8936C46.666 12.531 46.5916 15.1175 44.9349 16.6619C43.2968 18.2063 40.7094 18.1319 39.1643 16.4758C37.6193 14.8383 37.6938 12.2519 39.3505 10.7075Z" fill="#A37BFF"/>
<path d="M50.6296 9.14824C50.4634 8.86828 50.2973 8.58831 50.1127 8.30835C55.724 17.0618 45.2952 34.4008 30.1964 25.3114C30.1964 25.3114 15.5222 39.2535 13.9717 40.728C12.4212 42.2025 9.85554 41.4932 8.8588 41.0266C8.80342 42.7811 8.74805 43.6769 8.74805 44.6848C8.74805 44.6848 8.74805 44.6848 8.74805 44.7035C10.077 44.7968 16.9619 45.1887 16.9619 45.1887L16.8327 40.2614L21.9825 40.4294V35.6513C21.9825 35.6513 23.9391 35.7447 26.7078 35.9313C26.7078 35.9313 26.7447 35.894 26.7632 35.894C28.9228 33.8596 32.2637 30.668 33.7957 29.2122C44.483 34.1022 57.8836 21.4293 50.6296 9.1669V9.14824Z" fill="#732FDE"/>
<path d="M7.93541 13.5788L13.0785 16.94V11.1656L18.165 7.73547L12.1554 5.94283L10.1584 0.461502L6.44712 5.1327L0.117188 5.16717L3.82849 9.85561L1.92574 15.3714L7.93541 13.5788Z" fill="#732FDE"/>
</svg>
