<svg width="58" height="58" viewBox="0 0 58 58" fill="none" xmlns="http://www.w3.org/2000/svg">
<g clip-path="url(#clip0_161_2512)">
<path d="M11.4759 36.4498C12.7659 35.2798 24.9559 24.2098 24.9559 24.2098C25.8359 24.7398 26.6959 25.1698 27.5359 25.4898C27.5359 25.4898 27.5359 25.4798 27.5359 25.4698C27.0559 24.2298 26.7859 22.8698 26.7859 21.4598C26.7859 15.2698 31.8459 10.2498 38.0859 10.2498C38.6659 10.2498 39.2459 10.2898 39.8059 10.3798C39.8959 10.3998 40.0459 10.4198 39.8559 10.3798C40.1359 10.4298 40.4059 10.4998 40.6459 10.5698C40.6559 10.5698 40.6659 10.5698 40.6859 10.5798C40.7559 10.5998 40.8259 10.6298 40.8959 10.6498C40.9259 10.6598 40.9559 10.6698 40.9959 10.6798C41.0759 10.7098 41.1459 10.7398 41.2159 10.7598C41.2159 10.7598 41.2259 10.7598 41.2359 10.7598C41.5059 10.8598 41.6659 10.9398 41.6659 10.9398C41.6659 10.9398 41.5259 10.7198 41.5159 10.7098C41.1959 10.2298 40.8359 9.76982 40.4359 9.33982C38.6159 7.36982 36.2459 6.18982 33.7759 5.81982C33.1259 5.71982 32.4659 5.67982 31.8059 5.69982C29.1759 5.76982 26.5659 6.73982 24.4759 8.63982C21.0959 11.7098 20.0359 16.3398 21.3659 20.3998L7.43588 33.0598L7.27588 36.6098V36.6398C8.08588 37.0298 10.1859 37.6098 11.4759 36.4398V36.4498Z" fill="#A37BFF"/>
<path d="M28.636 27.61C28.196 26.95 27.826 26.24 27.536 25.49C26.696 25.16 25.836 24.74 24.956 24.21C24.956 24.21 12.756 35.29 11.476 36.45C10.186 37.62 8.086 37.03 7.276 36.65C7.216 37.9 7.166 38.77 7.146 39.52C7.146 39.54 7.146 39.56 7.146 39.58C7.146 39.58 7.146 39.59 7.146 39.6C8.416 39.68 13.776 40.17 13.776 40.17V40.1L13.806 37.66L13.826 36.11L18.056 36.3L18.106 32.45C18.106 32.45 19.696 32.55 21.986 32.72C23.766 31.1 26.586 28.54 27.866 27.38C28.146 27.51 28.426 27.62 28.706 27.72C28.706 27.72 28.696 27.7 28.686 27.69C28.666 27.67 28.646 27.64 28.636 27.62V27.61Z" fill="#732FDE"/>
<path d="M38.6659 31.5698V49.6998C38.6659 51.4298 36.7959 52.5698 35.9659 52.8998L33.4259 50.3798V31.6698C31.5059 30.8098 29.8659 29.4298 28.7059 27.7098C28.7059 27.7098 28.6959 27.6898 28.6859 27.6798C28.6659 27.6598 28.6559 27.6298 28.6359 27.6098C28.1959 26.9498 27.8259 26.2398 27.5359 25.4998C27.5359 25.4998 27.5359 25.4898 27.5359 25.4798C27.0559 24.2398 26.7859 22.8798 26.7859 21.4698C26.7859 15.2798 31.8459 10.2598 38.0859 10.2598C38.6659 10.2598 39.2459 10.2998 39.8059 10.3898C39.8059 10.3898 39.8359 10.3898 39.8559 10.3898C39.8359 10.3898 39.8259 10.3898 39.8059 10.3898C39.8759 10.3998 39.9459 10.4198 40.0159 10.4298C40.1559 10.4598 40.2959 10.4898 40.4359 10.5298C40.5059 10.5498 40.5759 10.5698 40.6459 10.5898C40.6559 10.5898 40.6659 10.5898 40.6859 10.5998C40.7559 10.6198 40.8259 10.6398 40.8959 10.6698C40.9259 10.6798 40.9559 10.6898 40.9959 10.6998C41.0759 10.7298 41.1459 10.7498 41.2159 10.7798C41.2159 10.7798 41.2259 10.7798 41.2359 10.7798C41.2959 10.7998 41.3559 10.8298 41.4159 10.8498C41.4459 10.8598 41.4659 10.8698 41.4859 10.8798C41.5159 10.8898 41.5459 10.9098 41.5759 10.9198C41.6059 10.9298 41.6259 10.9398 41.6559 10.9598C42.0059 11.1198 42.3459 11.3098 42.6659 11.5198C43.1259 11.8198 43.5559 12.1598 43.9659 12.5398C43.7559 13.1898 43.4859 13.7798 43.1559 14.3198C43.1359 14.3498 43.1159 14.3798 43.0959 14.4198C42.9659 14.6298 42.8259 14.8198 42.6859 15.0098C42.2259 15.6098 41.6859 16.0998 41.0859 16.4698C41.0659 16.4298 41.0559 16.3998 41.0359 16.3598C41.0259 16.3298 41.0059 16.2998 40.9959 16.2698C40.9559 16.1898 40.9059 16.1198 40.8559 16.0398C40.8359 16.0098 40.8159 15.9898 40.7959 15.9598C40.7559 15.9098 40.7259 15.8598 40.6859 15.8098C40.6559 15.7798 40.6359 15.7498 40.6159 15.7198C40.5759 15.6698 40.5259 15.6198 40.4859 15.5798C40.4559 15.5498 40.4359 15.5298 40.4059 15.4998C40.3459 15.4498 40.2959 15.3898 40.2359 15.3398C40.2059 15.3198 40.1759 15.2898 40.1459 15.2698C40.1059 15.2398 40.0559 15.1998 40.0059 15.1698C39.9759 15.1498 39.9459 15.1298 39.9059 15.0998C39.8359 15.0498 39.7659 15.0098 39.6859 14.9698C39.6559 14.9498 39.6259 14.9398 39.5859 14.9198C39.5359 14.8898 39.4759 14.8698 39.4259 14.8398C39.3859 14.8198 39.3459 14.8098 39.3059 14.7898C39.2559 14.7698 39.2059 14.7498 39.1459 14.7298C39.1059 14.7198 39.0659 14.6998 39.0359 14.6898C38.9559 14.6698 38.8659 14.6498 38.7859 14.6298C38.7459 14.6298 38.7059 14.6098 38.6559 14.6098C38.6059 14.6098 38.5459 14.5898 38.4859 14.5898C38.4459 14.5898 38.3959 14.5798 38.3559 14.5798C38.2859 14.5798 38.2259 14.5798 38.1559 14.5698C38.1259 14.5698 38.1059 14.5698 38.0759 14.5698C37.0459 14.5698 36.1259 15.0398 35.5159 15.7698C35.0359 16.3398 34.7559 17.0698 34.7559 17.8698C34.7559 19.6898 36.2459 21.1698 38.0759 21.1698C38.1859 21.1698 38.3059 21.1698 38.4159 21.1498C38.4159 21.1498 38.4359 21.1498 38.4459 21.1498C38.5459 21.1398 38.6359 21.1298 38.7259 21.1098C38.7559 21.1098 38.7759 21.0998 38.7959 21.0898C38.8759 21.0698 38.9559 21.0498 39.0259 21.0298C39.0559 21.0298 39.0859 21.0098 39.1059 20.9998C39.1759 20.9798 39.2459 20.9498 39.3159 20.9198C39.3459 20.9098 39.3759 20.8998 39.4059 20.8798C39.4759 20.8498 39.5359 20.8198 39.5959 20.7898C39.6259 20.7798 39.6559 20.7598 39.6759 20.7498C39.7359 20.7098 39.8059 20.6798 39.8659 20.6398C39.8959 20.6198 39.9159 20.6098 39.9459 20.5898C40.0059 20.5498 40.0759 20.4998 40.1359 20.4498C40.1559 20.4398 40.1759 20.4198 40.1959 20.3998C40.2659 20.3398 40.3359 20.2798 40.4059 20.2198C40.4059 20.2198 40.4159 20.2098 40.4259 20.1998C40.4959 20.1298 40.5659 20.0498 40.6359 19.9698C40.6359 19.9698 40.6459 19.9498 40.6559 19.9398C40.7159 19.8698 40.7659 19.7998 40.8159 19.7298C40.8359 19.6998 40.8559 19.6698 40.8759 19.6398C40.9159 19.5898 40.9459 19.5298 40.9759 19.4698C40.9959 19.4298 41.0159 19.3998 41.0359 19.3598C41.0659 19.3098 41.0859 19.2598 41.1159 19.1998C41.1359 19.1598 41.1559 19.1098 41.1659 19.0698C41.1859 19.0198 41.2059 18.9698 41.2259 18.9198C41.2459 18.8698 41.2559 18.8198 41.2659 18.7698C41.2759 18.7198 41.2959 18.6698 41.3059 18.6198C41.3159 18.5698 41.3259 18.5198 41.3359 18.4598C41.3359 18.4498 41.3359 18.4298 41.3359 18.4198C41.6659 18.2698 41.9859 18.0898 42.2859 17.8898C42.6659 17.6298 43.0259 17.3398 43.3559 17.0098C43.4059 16.9698 43.4559 16.9198 43.5059 16.8698C44.2459 16.1098 44.8659 15.1798 45.3359 14.1298C49.1559 19.4398 48.8059 28.6698 38.6359 31.5698H38.6659Z" fill="#A37BFF"/>
<path d="M45.7761 13.0498C45.7661 13.0998 45.7461 13.1498 45.7261 13.1998C45.6161 13.5198 45.4961 13.8298 45.3661 14.1298C49.1861 19.4398 48.8361 28.6698 38.6661 31.5698V49.6998C38.6661 51.4298 36.7961 52.5698 35.9661 52.8998C36.8061 53.6598 37.2961 54.2098 37.8061 54.7198C37.8661 54.7798 37.9261 54.8398 37.9961 54.9098C38.0261 54.9398 38.0561 54.9698 38.0861 54.9998C38.8361 54.2898 42.9861 50.3798 42.9861 50.3798L39.9961 47.7398L42.9961 44.7698L40.1661 42.1398C40.1761 42.1298 41.3261 41.0298 42.9861 39.4798V31.5698C50.2261 28.5998 51.5961 18.1698 45.7661 13.0498H45.7761Z" fill="#732FDE"/>
<path d="M38.7459 0.000234375C42.9259 0.000234375 46.3259 4.27024 46.3259 9.51023C46.3259 10.1402 46.2759 10.7502 46.1859 11.3402C46.0959 11.9302 45.9559 12.5002 45.7759 13.0502C45.7659 13.1002 45.7459 13.1502 45.7259 13.2002C45.6159 13.5202 45.4959 13.8302 45.3659 14.1302C44.8959 15.1802 44.2759 16.1202 43.5359 16.8702C43.4859 16.9202 43.4359 16.9702 43.3859 17.0102C43.0459 17.3402 42.6959 17.6402 42.3159 17.8902C42.0059 18.0902 41.6959 18.2702 41.3659 18.4202C40.5559 18.8002 39.6759 19.0002 38.7559 19.0002C38.2359 19.0002 37.8159 18.5802 37.8159 18.0702C37.8159 17.5602 38.2359 17.1402 38.7559 17.1402C39.5859 17.1402 40.3859 16.9002 41.0959 16.4602C41.6859 16.0902 42.2259 15.6002 42.6959 15.0002C42.8459 14.8102 42.9859 14.6102 43.1059 14.4102C43.1259 14.3802 43.1459 14.3502 43.1659 14.3102C43.4959 13.7702 43.7659 13.1702 43.9759 12.5302C44.0359 12.3502 44.0859 12.1602 44.1359 11.9802C44.1459 11.9502 44.1559 11.9102 44.1659 11.8802C44.3559 11.1302 44.4559 10.3302 44.4559 9.50023C44.4559 5.29023 41.8959 1.86023 38.7659 1.86023C36.6659 1.86023 34.7659 3.46023 33.7859 5.84023C33.1359 5.74023 32.4759 5.70023 31.8159 5.72023C32.9859 2.30023 35.6759 -0.00976562 38.7759 -0.00976562" fill="#732FDE"/>
</g>
<defs>
<clipPath id="clip0_161_2512">
<rect width="42.26" height="55" fill="white" transform="translate(7.146)"/>
</clipPath>
</defs>
</svg>
