<svg width="100" height="71" viewBox="0 0 100 71" fill="none" xmlns="http://www.w3.org/2000/svg">
<g clip-path="url(#clip0_161_2826)">
<path d="M99.1459 51.0354V54.6803C98.7747 56.5591 98.3467 58.3635 97.5733 60.1219C94.8018 66.4042 88.7329 70.4797 81.857 71H21.3355C12.0801 70.431 3.60062 63.941 1.04828 55.0647C0.648669 53.6704 0.493981 52.2504 0.176872 50.8432C0.251638 49.5924 0.0737469 48.2416 0.176872 47.0061C0.279997 45.7707 0.731169 43.8867 1.09211 42.6385C2.52039 37.7069 5.80234 33.4751 10.0073 30.5685C8.3882 20.1876 16.731 10.8679 27.3426 11.5035C27.9897 11.542 30.8385 12.2084 31.0757 12.0598C36.0025 0.84073 49.8161 -3.45772 60.3941 3.06557C64.3129 5.48264 67.5072 9.39405 68.9355 13.7745C69.4253 15.274 69.6676 16.7888 69.9564 18.3344C78.441 16.1762 87.3974 21.1872 89.7719 29.5483C90.5247 32.2012 90.5634 34.5542 90.2875 37.2865C91.4941 38.2657 92.8321 39.0808 93.933 40.1906C96.5343 42.8179 98.803 47.3419 99.1485 51.0354H99.1459ZM20.8173 33.4392C15.1377 34.0621 12.4694 40.7391 17.3111 43.7201C18.9559 44.7326 28.0748 46.6268 24.3442 49.7974C22.8644 51.0534 20.5802 50.7868 18.9198 49.9897C17.6179 49.3642 15.973 46.8395 14.3927 48.7439C13.217 50.1614 14.2921 51.3558 15.4445 52.2863C19.1725 55.2903 26.0767 55.521 28.4331 50.7842C30.3925 46.8446 27.7112 43.9252 24.2772 42.3693C22.653 41.6337 17.3987 40.6981 19.1209 38.2785C20.062 36.9585 22.3127 37.0559 23.6997 37.5711C25.0867 38.0863 25.3729 39.3012 27.1028 38.909C28.6291 38.563 28.7141 36.6099 27.8221 35.5897C26.3964 33.9595 22.9082 33.2111 20.8173 33.4392ZM74.7491 33.4392C68.8891 34.1415 66.5713 41.1262 71.8204 43.9149C73.6431 44.8838 81.4187 46.5012 78.6601 49.6C77.2628 51.1713 74.3083 50.7586 72.6609 49.7948C71.4053 49.0618 70.5984 47.3188 68.8091 48.4543C66.2155 50.0973 69.843 52.7861 71.4337 53.5089C80.9263 57.8202 88.0213 47.0138 78.9205 42.6231C77.8094 42.0874 73.1765 40.6956 72.898 39.7728C72.0988 37.1174 76.1877 36.9123 77.9537 37.6326C79.2944 38.1785 79.8796 39.6267 81.6276 38.7347C83.2776 37.8915 82.4732 36.1434 81.3646 35.2078C79.6192 33.734 76.9895 33.1726 74.7491 33.4418V33.4392ZM43.2805 52.5708C43.5023 54.9315 46.2737 55.1493 47.1091 53.0091C46.8719 48.5876 47.5628 43.5791 47.158 39.2269C46.9183 36.6304 43.5255 36.5048 43.2805 39.1397C38.9648 36.4304 33.0557 38.8065 31.6558 43.6202C29.6603 50.4843 37.124 56.231 43.2805 52.5708ZM61.6445 52.5708C61.8662 54.9315 64.6377 55.1493 65.473 53.0091C65.2359 48.5876 65.9268 43.5791 65.522 39.2269C65.2823 36.6304 61.8895 36.5048 61.6445 39.1397C57.3287 36.4304 51.4197 38.8065 50.0198 43.6202C48.0243 50.4843 55.488 56.231 61.6445 52.5708Z" fill="#7300FF"/>
<path d="M39.2252 49.8641C41.4564 49.8641 43.2651 48.0692 43.2651 45.8552C43.2651 43.6412 41.4564 41.8464 39.2252 41.8464C36.994 41.8464 35.1853 43.6412 35.1853 45.8552C35.1853 48.0692 36.994 49.8641 39.2252 49.8641Z" fill="#7300FF"/>
<path d="M57.5866 49.8641C59.8177 49.8641 61.6265 48.0692 61.6265 45.8552C61.6265 43.6412 59.8177 41.8464 57.5866 41.8464C55.3554 41.8464 53.5466 43.6412 53.5466 45.8552C53.5466 48.0692 55.3554 49.8641 57.5866 49.8641Z" fill="#7300FF"/>
</g>
<defs>
<clipPath id="clip0_161_2826">
<rect width="99" height="71" fill="white" transform="translate(0.145996)"/>
</clipPath>
</defs>
</svg>
