<svg width="30" height="32" viewBox="0 0 30 32" fill="none" xmlns="http://www.w3.org/2000/svg">
<path d="M23.0579 21.914C23.0099 22.0325 22.9618 22.151 22.9041 22.2587C21.327 25.2964 14.9031 24.9733 14.5281 21.9463C15.4128 21.5047 15.432 20.5783 15.3839 19.5549C15.3647 19.1133 15.3647 18.6716 15.3647 18.23C16.1148 19.1564 16.9034 20.1582 18.0285 20.4382C19.0959 20.7075 20.2499 20.3628 21.0385 19.5118C21.4039 19.1241 21.7501 18.7039 22.1059 18.2946C22.1059 18.7901 22.1059 19.2964 22.0674 19.7919C21.9905 20.8799 22.2117 21.6124 23.0676 21.914H23.0579Z" fill="#A37BFF"/>
<path d="M29.1452 26.1152C29.2029 26.2768 25.6929 27.2139 21.7597 30.5532C20.0288 32.0182 17.6342 31.9536 15.9514 30.4132C12.124 26.9123 8.25812 26.266 8.31582 26.1044C9.27748 24.6717 10.5084 23.7884 11.8643 23.1852C12.7587 22.7866 13.5761 22.0972 14.5281 21.9356C14.9031 24.9626 21.327 25.275 22.9041 22.248C22.9618 22.1403 23.0099 22.0218 23.058 21.9033C24.4427 22.5389 25.8179 23.2498 27.145 24.0577C27.9336 24.5317 28.549 25.2965 29.1356 26.1044L29.1452 26.1152Z" fill="#732FDE"/>
<path d="M25.4332 11.411C25.1928 12.1974 24.9427 12.9622 24.8754 13.8132C24.8273 14.4487 24.4619 14.7719 23.8753 14.718C23.5291 15.7198 23.2791 16.9155 22.6059 17.7019C22.4328 17.8958 22.2693 18.1005 22.0962 18.3051C21.75 18.7145 21.3942 19.1238 21.0288 19.5224C20.2402 20.3734 19.0863 20.7181 18.0188 20.4488C16.9033 20.1687 16.1051 19.1669 15.355 18.2405C15.2493 18.1112 15.1435 17.982 15.0377 17.8635C14.3261 17.0017 13.9414 15.7629 13.4798 14.7073C12.9701 14.7073 12.6528 14.4487 12.6047 13.8671C12.5374 13.0268 12.297 12.2405 12.0373 11.4434C11.8065 10.7324 11.7777 10.043 12.5374 9.6552C12.5182 9.49362 12.4797 9.34281 12.4701 9.18123C12.1431 2.85806 15.1531 -0.0503787 20.7788 1.03759C22.4809 1.37153 23.6637 2.58876 24.1445 3.98912C24.8369 6.00349 24.9043 7.79164 24.6735 9.59057C25.4332 9.94604 25.6543 10.6355 25.4139 11.411H25.4332Z" fill="#A37BFF"/>
<path d="M9.96859 18.0045C9.96859 18.6737 9.49635 19.2134 8.91077 19.2134H6.11511V22.4085C6.11511 23.0777 5.64287 23.6174 5.05729 23.6174C4.47171 23.6174 3.99947 23.0777 3.99947 22.4085V19.2134H1.20381C0.618236 19.2134 0.145996 18.6737 0.145996 18.0045C0.145996 17.3353 0.618236 16.7956 1.20381 16.7956H3.99947V13.6005C3.99947 12.9313 4.47171 12.3916 5.05729 12.3916C5.64287 12.3916 6.11511 12.9313 6.11511 13.6005V16.7956H8.91077C9.49635 16.7956 9.96859 17.3353 9.96859 18.0045Z" fill="#732FDE"/>
</svg>
