<svg width="157" height="29" viewBox="0 0 157 29" fill="none" xmlns="http://www.w3.org/2000/svg">
<g clip-path="url(#clip0_91_276)">
<path d="M24.1481 0.541016H23.9728H16.1499H16.0914H8.10045L4.07575 7.51505L0.0583496 14.4964H8.10776L12.1252 7.51505H12.1325H19.9554H20.1234H28.0048L32.0222 0.541016H24.1481Z" fill="#7F18E5"/>
<path d="M16.0915 14.4966H8.13706L4.11236 21.4779H4.0247L0 28.4593H8.04941L12.0741 21.4779H12.1618H20.1235L24.1482 14.4966H16.1865H16.0915Z" fill="#7F18E5"/>
<path d="M51.0574 6.95942V9.27678H47.9312V11.9816H51.0574V28.6052H54.1472V11.9816H57.3392L59.472 9.27678H54.1399V6.95942C54.1399 4.3277 55.3743 2.70481 57.6167 2.70481C58.9315 2.70481 60.0491 2.82178 61.0571 3.20923L61.8314 0.811444C60.5531 0.23393 59.1287 0 57.624 0C53.6432 0 51.0574 2.74868 51.0574 6.95942Z" fill="#21005D"/>
<path d="M72.7659 8.88915H72.2254C69.7127 8.88915 67.6309 10.0076 66.3162 11.5574L66.0824 11.4404V9.27659L62.9927 11.594V28.6416H66.0824V14.4888C67.4703 12.7124 69.479 11.5867 71.8383 11.5867H72.7659V8.88184V8.88915Z" fill="#21005D"/>
<path d="M82.8096 8.88916C77.2072 8.88916 72.7661 13.3338 72.7661 18.9408C72.7661 24.5478 77.2072 28.9925 82.8096 28.9925C88.4121 28.9925 92.8896 24.5478 92.8896 18.9408C92.8896 13.3338 88.4048 8.88916 82.8096 8.88916ZM82.8096 26.2877C78.9456 26.2877 75.8559 22.9981 75.8559 18.9408C75.8559 14.8836 78.9456 11.594 82.8096 11.594C86.6736 11.594 89.7999 14.9202 89.7999 18.9408C89.7999 22.9615 86.6298 26.2877 82.8096 26.2877Z" fill="#21005D"/>
<path d="M105.599 8.88913C102.429 8.88913 99.9602 10.1246 98.5286 11.8644L98.2948 11.784V9.26927L95.2051 11.9741V28.5977H98.2948V15.2199C99.6461 12.7855 102.159 11.5866 104.825 11.5866C107.491 11.5866 109.5 13.2095 109.5 16.9963V28.5977H112.589V16.9963C112.589 11.6232 109.419 8.87451 105.599 8.87451V8.88913Z" fill="#21005D"/>
<path d="M126.307 11.9816V9.27681H120.588V3.09229H117.498V9.27681H114.372V11.9816H117.498H120.588H126.307Z" fill="#21005D"/>
<path d="M124.064 26.0977C122.019 26.0977 120.588 24.9353 120.588 22.2305V11.9814L117.498 17.2814V22.2305C117.498 26.4412 120.317 28.8025 124.064 28.8025C125.416 28.8025 126.731 28.5685 127.892 27.991L127.118 25.5932C126.227 25.9807 125.226 26.0977 124.064 26.0977Z" fill="#21005D"/>
<path d="M134.495 9.27686H131.406V28.6053H134.495V9.27686Z" fill="#21005D"/>
<path d="M132.91 1.2793C131.902 1.2793 131.055 2.12729 131.055 3.17267C131.055 4.21804 131.902 5.02949 132.91 5.02949C133.918 5.02949 134.802 4.18149 134.802 3.17267C134.802 2.16384 133.955 1.2793 132.91 1.2793Z" fill="#21005D"/>
<path d="M149.389 18.6706L156.613 9.27686H153.055L147.606 16.3898L142.201 9.27686H138.644L145.868 18.6706L138.264 28.6126H141.734L147.606 20.9587L153.523 28.6126H157L149.389 18.6706Z" fill="#21005D"/>
</g>
<defs>
<clipPath id="clip0_91_276">
<rect width="157" height="29" fill="white"/>
</clipPath>
</defs>
</svg>
